<svg width="54" height="36" viewBox="0 0 54 36" xmlns="http://www.w3.org/2000/svg" xmlns:sketch="http://www.bohemiancoding.com/sketch/ns"><title>NJOY Logo 4</title><desc>Created with Sketch.</desc><path d="M490.648917,46.6923077 L486,46.6923077 L486.47646,45.2957707 L486.47646,20.4202907 L486,19 L490.175657,19 L495.612882,35.6844944 L495.612882,20.4202907 L495.142824,19 L499.846154,19 L499.37198,20.4202907 L499.37198,45.2957707 L499.846154,46.6923077 L495.612882,46.6923077 L490.175657,30.0190179 L490.175657,45.2957707 L490.648917,46.6923077 L490.648917,46.6923077 Z M523.384615,20.7972123 L523.384615,44.864619 L521.318086,46.6923077 L513.016984,46.6923077 L510.923077,44.864619 L510.923077,20.7972123 L513.016984,19 L521.318086,19 L523.384615,20.7972123 L523.384615,20.7972123 Z M518.740226,21.7692308 L515.573573,21.7692308 L515.076923,22.1801757 L515.076923,42.1243061 L515.573573,42.5384615 L518.740226,42.5384615 L519.230769,42.1243061 L519.230769,22.1801757 L518.740226,21.7692308 L518.740226,21.7692308 Z M534.276353,45.2957707 L534.691641,46.6923077 L530.045609,46.6923077 L530.522541,45.2957707 L530.522541,33.3552893 L525.873266,20.6224211 L524.769231,19 L530.375615,19 L529.837502,19.8694743 L532.384847,27.9573778 L534.932656,19.8694743 L534.390372,19 L540,19 L538.895038,20.6224211 L534.276353,33.3552893 L534.276353,45.2957707 L534.276353,45.2957707 Z M502.87873,19 L503.410247,20.4705905 L503.410247,47.6730345 C503.410247,51.9892107 502.229097,53.8152674 501.230769,54.5939518 L501.373534,55 C503.640828,54.5684288 507.629518,53.0430798 507.629518,47.6730345 L507.629518,20.4705905 L508.153846,19 L502.87873,19 L502.87873,19 Z" sketch:type="MSShapeGroup" transform="translate(-484 -19) translate(-2)" fill="#fff"/></svg>