<svg xmlns="http://www.w3.org/2000/svg" width="80" height="80" viewBox="0 0 100 100"><path fill-rule="evenodd" clip-rule="evenodd" fill="#fff" d="M26.6 2c.4-.2.7-.2 1.2-.1.1.6 0 1.1-.4 1.2-.7-.1-1-.4-.8-1.1zm-.5 2.7c.3-.3.6-.9.3-1.4-1.3-1.2-1.8 1.4-.3 1.4zm-11.7-1.3c-.3-.7-1.4-.1-.8.4.5.2.7 0 .8-.4zm-7 2.8c.3-.3.1-.4 0-.8l.4-.1c.3-1.2-1.5-1.3-1.2 0l.8.9zm32.3-1.2c0-.3 0-.5-.3-.4 0 .1 0 .1-.1.1-.1.3.1.3.4.3zm-19.1.3c0-.4-.1-.6-.4-.6-.3.3 0 .6.4.6zm25.7 3.3c.4-.1.4-1.1 0-1.2-.5.1-.7 1.2 0 1.2zm-16.7-.5c.2-.5-.4-.6-.6-.4v.3c.1.2.3.2.6.1zm-5.9.7c.2-.9-1.2-1.2-1-.1.2.2.8.3 1 .1zm36.9.8c0-.1.1-.1.2-.1.1-.2.4-.7 0-.8-.2.1-.8.6-.2.9zm-12.6-.3c.4.1.4-.2.4-.4-.1 0-.1-.1-.3-.1l-.1.5zm-1.5.4c0-.2.3-.2.2-.5-.1 0-.1-.1-.3-.1-.2.1-.2.6.1.6zm11.6-.7c-.3 0-.5 0-.4.3.2.1.4 0 .4-.3zm-22 .1l-.1.4c.2.2.4 0 .6 0 0-.3-.2-.3-.5-.4zm10 .9c-.2-.1-.3-.2-.4-.2-.2.4.3.6.4.2zm-2 1.9c.7-.3.8-.7.6-1.6-1.1-1.4-2.3 1.5-.6 1.6zm10.2-.8c0-.3.2-.5.1-.9-.4-.1-.5.2-.5.5l.4.4zm-18 1.1c.2.1.4.3.9.2.4-.7 0-1.6-.8-1.7 0 .7-.2.7-.1 1.5zm9.3-.8c.1-.1.1-.4.1-.6h-.4c0 .3-.1.7.3.6zm5 .8c.1-.6.2-.6.2-1.3-.1 0-.1-.1-.3-.1-.1.4 0 .6-.2 1 .1.1.1.3.3.4zm-27.5-1.2c0 .1 0 .2-.1.2 0 .3.5.6.6.4.3-.3 0-.8-.5-.6zm-17.6.2c-.7-.3-1.7 0-1.4 1 .7.7 2.2 0 1.4-1zm12.8-.1c0 .3 0 .5.1.6.3.1.2-.2.4-.2 0-.3-.1-.5-.5-.4zm29.9 1.1v-.4h-.3c0 .2 0 .5.3.4zm8.1 0c0-.1.1-.1.2 0l.1-.4c-.3-.2-.6.2-.3.4zm-35.7.1c0-.2 0-.5-.3-.4 0 .1-.1.1-.2.1-.2.4.3.5.5.3zm43.4-.1c.1-.4-.5-.4-.5-.1.2 0 .3.3.5.1zm-23.3 4.3c-.2-.5.1-.5.3-.2-.1-.8 0-1.2.5-1.5l-.2-2.3c-.2-.1-.5-.2-.5-.5-.8-.3-1.1.7-1.4.2.3.7-.8 1.2-.3 2.1-.1 0-.3 0-.3.1.2 0 .1.2 0 .3.4.2.1-.4.3-.3 0 .3.2.2.1.5l-.2.1c-.2 0-.2-.2-.3-.2 0 .6.3.8.3 1.2.7 0 1 .4 1.7.5zm12.6-4c0-.2 0-.4-.2-.4 0 .1-.2.2-.1.4h.3zm-1.9.3c.4-.5-.2-.8-.5-.4-.1.3.1.4.5.4zm-28.3-.1c.1-.4-.4-.4-.4-.1.2 0 .2.3.4.1zm26.5.4c-.2-.3 0-.4-.1-.6-.6 0-.2.6.1.6zm-21.1-.1v-.4h-.3c0 .3 0 .5.3.4zm18.1-.1c-.2-.1-.3-.2-.4-.2-.4.3-.2 1 .3 1l.1-.8zm-27.8 1.1c0 .5.3.6.2 1.1.4.1 1.2.5 1.5 0 .6.4 1.2 1 2.1 1.2.8-.8 1.7-1.5.8-2.8-1 0-1.7.1-2.2.5-.5-.4-.9-.9-1.7-1.1-.2.5-.6.7-.7 1.1zm15.9-.8c-.4.3-.5.8-.3 1.3 1.3.8 1.6-1.1.3-1.3zm14.5 1c.1-.2.6-.1.4-.5h-.3c.1.2-.5.3-.1.5zm14.6.6c.4 0 .8 0 .8-.4-.3-.8-1.5-.2-.8.4zm-35.4.4c.1-.3.1-.3 0-.6-.3 0-.5.2-.5.5.1.1.2.1.5.1zm8.7 0c.2.2.7.1.9-.1 0-.4-.3-.5-.6-.5-.2.1-.3.3-.3.6zm10.6.3v-.4c-.4-.1-.4.5 0 .4zm-11.1 2.6c0-1.1 1.1-1.1.6-2.3-1.2-1.1-1.5.6-1.6 2.2.3.2.7.3 1 .1zm-11.7-1.2l.2-.3c.1-.9-1.6-1.7-1.3-.1.4.2.5.5 1.1.4zm20.7-.3v.8c.6.8 2.3-.2 1.3-1.2l.2-.5h-.2c-.1 0-.2 0-.2.1.1.2-.8.8-1.1.8zm-41.7.2c.5 0 1 .1 1-.4-.2-.6-1.3-.4-1 .4zm44-.7c0 .4.1.8.3 1 .5 0 .6-.6.4-1-.3-.1-.5.2-.7 0zm-6.3 2.3c-.7-.2-.1-1-.8-1.4-.4.3-.7.7-.9 1.2l-.2-1.1c-.3.1-.6-.7-.9-1-.6-.1-.7.3-1.1.4.2.5 0 .8-.3.8.1.9.4 1.6.8 2.3.7-.1 1.4-.2 1.7-.6.1.2.3.4.6.3.3-.1.1-.6.3-.8.5 0 .8.5.8-.1zm-13.2-1.9l-.1.3c.3.1.7.2.6-.2-.2 0-.2-.2-.5-.1zm4.4 1.8c.4-1-.4-2.3-1.4-1.5 0 1.1.4 1.8 1.4 1.5zm35.8-1.2v.2c.2.4.7-.3.2-.3 0 .1-.1.2-.2.1zm-23.8 1.1c0-.4 0-.8-.4-.8 0 .4.1.7.4.8zm-17.1-.4c-.1.5 0 .8.2 1.1.4.1.5-.1.8-.1-.1-.6-.3-1-1-1zm18 0c0 .2-.3.2-.2.5l.4.1c.1-.2.2-.6-.2-.6zm-16.7 1.2c.3.1.5.2.9.1.6-1.1-1.5-1.6-.9-.1zm-2-.7c-.1-.2-.3-.2-.6-.2v.6c.3.1.7.1.6-.4zm-10.3 1.8c.8 0 .8-.3 1.5-.1.3-.2.6-.4.5-1-.8-1.5-1.9-.2-2.4.8.2 0 .3.1.4.3zm16.2-1.9c-.3.5.1.7.3 1.2.4 0 .3.1.6 0-.1 1.2.7 1.5.5 2.6.4.2.7.5 1.1.6.2-.1.4-.2.3-.5-.3-.3-.5-.1-.9 0 .4-.4-.5-.7-.2-.9.8.3 1.4-1.2 1.1-2.1-.4-.2-.1.4-.3.3-.4-.4-.8-.8-1.3-1.2-.3.6-.5-.1-1.2 0zm35.5.9c.6 0 1.3-.4 1.1-.9-.5.2-1.3.1-1.1.9zm-36.1.9c.2-.3 0-.6-.1-.9-.8-.2-.6.7-.9 1 .4.3.5-.3 1-.1zm-11.5-.6c-.3 1.1.8 1.5 1.4 1 .1-.4-.3-.4-.2-.9-.5-.1-.7-.2-1.2-.1zm10.1.4v-.4c-.3.1-.7 0-.6.4.3 0 .2-.1.6 0zm12.1-.4h-.3c0 .2-.1.7.2.5.2.1.1-.3.1-.5zm-2.8 1.1c0-.3 0-.5.1-.6-.7-.2-1.5 0-2.1.2.4.4 1.4.5 2 .4zm1.6.1c.3-.1.2-.6.2-1h-.3c.1.4-.3.9.1 1zm3.1-1c-.1.1-.2.6.1.6.1-.1.2-.6-.1-.6zm2.6.6c.3.1.5-.5.2-.5.1.3-.4.1-.2.5zm-36.1 1.2c.3-.3.3-.4.2-1-.3-.1-.9-.4-1.2-.1-.2.5.4 1.1 1 1.1zm31.7-.5l.2-.2c-.3 0 .1-.5-.3-.3 0 .2-.2.5.1.5zm.7-.2c.2-.1.8.2.6-.2-.1-.3-.6 0-.6.2zm-18 1.4h.9c.2-.3.4-.6.3-1.1-.9-.5-1.9.3-1.2 1.1zm15.2-1.2h-.3c-.2.2 0 .4 0 .6l.4-.1c0-.2 0-.3-.1-.5zm4 .6l.1-.4c-.1 0-.1-.1-.3-.1-.3.1-.1.4.2.5zm1.1-.6l-.4.1c0 .2 0 .3.1.4.3.1.3-.2.3-.5zm-17.5.2c-.1 0-.2-.2-.4-.1-.1.3-.1.2 0 .5.3.1.5 0 .4-.4zm11.3.5c-.1-.3-.1-.6-.4-.5 0 .2-.4.1-.4.2-.1.6.4.5.8.3zm-17.8-.5c0 .3 0 .6.3.5 0-.1.2-.2.1-.4-.1 0-.2-.1-.4-.1zm9.7.8v-.4h-.3c-.1.3-.1.5.3.4zm36.5.6c.9.1 1.1-.4 1.5-.8-.6.1-1.6-.2-1.5.8zm-28.3-.7c-.1.1-.1.4-.1.6.6.2.4-.5.1-.6zm1.3.3l-.5-.3c-.2.3-.4.6-.5 1 .6-.2.4-.3 1 0-.2-.4.1-.4 0-.7zm-18-.2c-.3 0-.5 0-.6.1-.1.4.8.3.6-.1zm1.3.4c0 .3.1.5.4.4.1-.3-.1-.4-.4-.4zm4.1.5h.3c.1-.3-.2-.3-.3-.4v.4zm2.8.3c.2-.2.1-.8-.2-.8.2.3-.2.6.2.8zm36.1-.2c.1-.7-.6-.4-.6 0 .2 0 .4.2.6 0zm-29.7.3c-.7.2-.5-.6-1.2-.6-.2.2.2.6.2 1 .4-.1.9-.1 1-.4zm5.2-.1c-.2-.1 0-.6-.4-.5-.3.3-.1.7-.5.6v.2c.1 0 .1 0 .1.1.3-.2.6 0 .8-.4zm-27.3 0c.1-.4-.3-.5-.5-.3 0 .3.2.4.5.3zm7.8-.4l-.1.4c.4.2.5-.6.1-.4zm6.2.8c.2-.3.1-.9-.4-.8-.2.3-.1.9.4.8zm40.7-.3c0-.2.2-.2.2-.3-.2-.4-.6.2-.2.3zm-46.3-.3c-.1.3-.1.2 0 .5.5.1.5-.2.6-.4-.3-.2-.4 0-.6-.1zm11.2.2c-.2-.2-.5 0-.5.2.2.2.6.2.5-.2zm-4 1.6c.4-.3.9 0 1.2-.4-.2-.5-.7-.5-.3-1-.2-.1-.3-.3-.6-.2-.1.5.2.5.3.8-.3 0-.3.2-.6.1-.1.3.1.3 0 .7zm8.8-1.1c.2 0 .1.3.4.2.1-.2.2-.4.2-.8-.3.1-.5.3-.6.6zm29.8-.3c-.1-.1-.5-.2-.5.1.1 0 .1.1.1.2.2.1.3-.1.4-.3zm-36.9 0v1.2l.4.1c0-.7.3-1.2-.4-1.3zm1.1.1c-.1 0-.2-.2-.4-.1-.1.1-.1.5 0 .6.3 0 .5-.1.4-.5zm-3.1.7c0-.1 0-.2.1-.2 0-.3-.2-.5-.5-.4-.2.2-.2.7.4.6zm-16.6-.1v-.4h-.4c0 .3.1.4.4.4zm.9-.2c0-.3-.1-.4-.4-.3-.1.4.1.4.4.3zm21.3.7c.3-.2.3-.7 0-.9-.5.4-.7 0-1.3-.1l.3.8 1 .2zm-27.6-.5c-.3 0-.6-.1-.6.2.1.2.7.4.8 0-.2 0-.2-.1-.2-.2zm-7.9.1c-.2.5.6.6.5.1-.2 0-.2-.2-.5-.1zm20.1.1c0-.2-.3-.1-.4-.1-.3.4.5.5.4.1zm12.2.6c.2.2.5.1.4-.3-.3 0-.4 0-.4.3zm-2 .2c-.6.1-.3-.1-1-.4-.4.6.9 1 1 .4zm2.3 1.3c0-.5.4-.6.8-.4 0-.6.3-1-.2-1.3-.1.3-.1.6-.4.7.5.2-.3.7-.5.6-.1.3 0 .4.3.4zm-.9-1.2c0-.2-.4-.1-.4-.2-.1.3-.3.5-.3.9.3.1.3 0 .8 0 0-.4-.5.1-.4-.5 0 0 .4.2.3-.2zm-14 .4c.1-.4-.4-.4-.5-.2-.1.3.3.3.5.2zm-8.2.2c0-.3 0-.5-.3-.4 0 .2.1.4.3.4zm27.7.5c.1-.3.1-.3 0-.6h-.5c-.1.4.1.6.5.6zm-15.2-.1c0-.3-.2-.5-.6-.4-.3.4.3.7.6.4zm.7-.4c0 .3 0 .4.1.5.3.1.5-.1.4-.4-.3.1-.3-.2-.5-.1zm3 .1c.4.5 0 .6.6.9.2-.1.3-.3.3-.6-.1-.3-.7-.4-.9-.3zm-10.2.8c.2.2 1 .2 1.2 0v-.5c-.5-.4-1.3-.4-1.2.5zm4.1-.4c0 .3 0 .5.3.4.2-.3.9-.1.8-.9-.7 0-.4.9-1.1.5zm-5.2-.2l.1.4c.3 0 .4 0 .5-.1 0-.4-.3-.4-.6-.3zm-4.7 0l-.1.8c.2.2.4.3.4.5l.6-.1c0-.7-.4-1-.9-1.2zm17.7.9c0-.1.1-.1.2-.1-.2-.5.5-.6 0-.8 0 .1 0 .2-.1.2-.1-.3-.3.1-.5 0-.1.4.2.5.4.7zm5.8-.8c0 .3-.1.5-.2 1 .6.1.6.4 1.3.2v-.4c-.7.3-.6-.7-1.1-.8zm-2.2.5c-.4.1-.3-.3-.6-.3l-.2.6c.3.1.4.1.6.3 0-.2.2-.3.2-.6zm-1.9.8c.2-.4.1-.9-.3-1-.1.4-.2 1.1.3 1zm3.7.8c0 .1 0 .2-.1.2 0-.9-.2-1.2-.3-1.9h-.3c.1.6-.3-.2-.9.1-.1.5.2.6.8.8l-.8.4c.1 0 .1.2.1.3.4.1.2-.4.5-.4 0 .1.1.1.2.1-.1.1-.1.4-.1.7.4 0 .6.1.8.3.1-.2.5-.5.1-.6zm-10.7-1.1c-.1-.1-.4-.1-.6-.1-.2.5.3.8.6 1 .2-.2-.1-.5 0-.9zm-17.9 0c-.2.3.6.5.5.1.1-.2-.3 0-.5-.1zm24.1.8v-.3c-.3.1-1 .2-.8.4.2-.4.7.1.8-.1zm2.3 0c-.3-.2-.7-.5-1.2-.2-.1.4-.2.8-.5.9.4 0 0 .1.1.3.4-.1 1.5-.3 1.6-1zm4.1-.2c-.4 0-.6.2-.6.5.2-.1.5-.2.6-.5zm-25.9.4c-.3-.3-.8.1-.4.4.3.1.4-.1.4-.4zm22.2 0c0 .6-.4.1-.5.5.3.2.3 0 .6.1l.2-.5c-.1 0-.1-.2-.3-.1zm-2.3.1h-.3c-.2.3 0 .3-.1.6.3 0 .5-.2.4-.6zm-5.6.4c0-.2-.3-.1-.4-.1-.3.4.5.5.4.1zm11.1 0c-.1 0-.1-.1-.3-.1-.1.3-.1.5.1.7-.1-.4.3-.3.2-.6zm-4.3 1.2l.3.2c.5-.3 1.1-.1 1-1.2-.3.1-.4.3-.6.3 0-.2 0-.4-.2-.4-.2.3.2.5.2.8-.1.5-.7-.1-.7.3zm53.9-.8c-.4-.3-.7-.2-1.1-.1v.5c.7.1 1 .3 1.1-.4zm-76.3-.1c-.1.4.5.4.4 0h-.4zm7.4.4c0-.3-.2-.3-.5-.3-.2.4.2.3.5.3zm5.9.4c.5.1.7-.2.6-.7-.3.1-.6.3-.6.7zm7.3-.2c0-.3.2-.2 0-.4h-.4c.1.3.1.7.3.9.1-.5.9.2.9.5.1-.1 0-.4.3-.3 0-.5-.3-.4 0-.8-.3-.1-.9-.3-1.1.1zm1.7-.3c-.1-.1-.3-.1-.5-.1v.4c.3 0 .4-.2.5-.3zm4 .4c.3.1.6-.3.3-.4.1.2-.4 0-.3.4zm-21.3-.3c0 .3.1.4.4.3 0-.3-.1-.4-.4-.3zm14.6.5c0-.4-.2-.6-.5-.5l-.1.6.6-.1zm-13.1-.2c-.3.3.1.7.3.4 0-.2-.2-.3-.3-.4zm17.2.3l.5.2c0-.2-.4-.6-.5-.2zm-8.9.4c.5 0 .5-.3 1-.1-.2-.3-.6-.4-1.1-.4 0 .3 0 .4.1.5zm-.9.7c.3-.4-.2-.7-.2-1.1-.3 0-.6 0-.8.1.1.5.6.7 1 1zm3.1-1c0 .4.6.6.6.2-.3-.1-.2-.4-.6-.2zm3.5.1c-.3-.1-1.1-.1-1.1.8.1.2.3.2.4.3-.2 0-.2.3-.2.5.4-.2.4-.7 1-.8-.1-.2.1-.7-.1-.8zm-9.4 1.1c.4 0 .4-.5.9-.2.1-.4-.1-.6-.3-.6-.3.4-.9-.3-1.4-.1.5.3.2.7.8.9zm5.5-.3c.3-.1.6-.1.5-.5l-.3-.1c-.2.1-.1.5-.2.6zm7.6.5c.2-.8-.7-.6-.8-1.2-.8-.1-.8.4-1.1.5l.9.1.3.6c.4.2.5 0 .7 0zm-25.3-.9c.1.2.5.6.6.4-.1-.2-.2-.8-.6-.4zm9.3.2c.2 0 .2.3.5.2.2-.5-.4-.5-.5-.2zm7.7.1c-.2-.5-1-.3-1.2.1.2.7 1.1.5 1.2-.1zm5.9-.3c-.2.2 0 .5.3.5 0-.3 0-.6-.3-.5zm-3.9.9c0-.3 0-.4-.1-.5-.3 0-.6.1-.6.3l.4.3c0-.1.1-.1.3-.1zm4.9-.4c0 .2 0 .4.2.4 0-.1.2-.2.1-.4h-.3zm56.2.5c1.2-.1-.4-.9 0 0zm-71.5.3c0-.3 0-.4-.1-.5-.4 0-.6.2-.5.5.3 0 .2.1.6 0zm9.4-.2v.4c.3.1.4-.1.5-.3-.1 0-.3-.1-.5-.1zm.8 0c-.4.3.1.8-.4.9.3 0 .3.7.5.3-.3-.2.3-.6.3-.9.1-.2-.2-.1-.4-.3zm-19.6.5h.4c.2-.4-.4-.4-.4 0zm25.2.1c0-.2.4-.1.3-.3-.1 0-.2-.2-.4-.1 0 .1-.1.4.1.4zm52-.3c-.3 0-.4 0-.5.1-.2.4.6.2.5-.1zm-59.5.2v.5c.4 0 .5-.1.5-.4-.1-.1-.2-.2-.5-.1zm-10.9.8c.3 0 .7.1.9-.1.1-.7-1.2-.6-.9.1zm7.8-.6c-.3.3.2.7.4.4 0-.2-.2-.4-.4-.4zm-2.3 1.2c.2-.2 0-.5-.2-.5-.3.2 0 .4.2.5zm7.2-.3c-.1-.1-.5-.1-.6 0-.1.3.3.5 0 .7-.4-.1-.3-.1-.2-.5-.3 0-.6 0-.5.3.7.1-.4.8.2 1.2 1.3.1.7-1 1.1-1.7zm-3.2.4c-.4-.9-1.7.2-.5.4.2 0 .5-.1.5-.4zm-6.2-.1l.1.4c.3 0 .4-.1.3-.4h-.4zm9.9.7c0-.2.4-.1.4-.2 0-.2-.3-.7-.4-.4.3 0-.5.5 0 .6zm-5.1-.1v-.4h-.4c-.1.4 0 .5.4.4zm58.8-.1c0-.3-.4-.3-.5-.2-.2.4.3.2.5.2zm-65 .4c0-.3-.2-.5-.6-.4-.1.1-.1.5 0 .6h.5c0-.1 0-.2.1-.2zm65.9 1.9c.1-.6-1-1.1-.4-1.4-.1-.3-.2-.6-.4-.8-.3.9.2 1.7.8 2.2zm-52.2-1.5c0-.3 0-.4-.1-.5-.4 0-.7.2-.8.5.2.3.5.1.9 0zm-3.7.5c-.2 0-.1-.2-.2-.3-.6-.2-1 .5-.7 1.2.6 0 .9-.3.9-.9zm62.4.4c.6.4 1.2.1.9-.6h-.9c-.1.3-.2.2 0 .6zm-86.9-.3c.1.1.4.1.6.1.2-.6-.5-.4-.6-.1zm19.4.7c-.1 0-.1-.2-.1-.3h-.4c-.1.4.2.4.3.5 0-.1 0-.1.1-.1 0 0 .1 0 .1-.1zm1.1-.1c-.3-.2-.7-.1-.9.2.2 0 .1.2.2.3.4 0 .7-.1.7-.5zm5.8.6c.1-.2.3-.3.2-.6-.4-.1-.8-.2-.9.3.2.2.4.3.7.3zm-4.4.1c.1-.4-.2-.4-.5-.4-.1.4.3.6.5.4zm67.3 1c0-.1.1-.2.2-.2-.2-.5 0-1-.4-1.1l-.4.8c.1.3.3.5.6.5zm-65-1.2c-.4 0-.6 0-.5.4.2 0 .5 0 .5-.4zm-8.7.7c-.2 0-.1-.2-.2-.3-.3 0-.6.1-.7.3.2.1.8.4.9 0zm-.3.7c.3 0 .6 0 .8-.1-.1-.6-.8-.2-.8.1zm-.9-.1c0 .5.3.4.5.3.1-.3-.2-.3-.5-.3zm7.7.2c-.2-.2-.7-.2-.9 0 0 .6.8.5.9 0zm2.8.4v-.3c-.2 0-.4 0-.4.1.1 0 .1.3.4.2zm-19.6.2c0 .6.6.5.5-.1-.2-.1-.4 0-.5.1zm6.7 0c0 .1-.2.2-.1.4.3 0 .5 0 .5-.2-.1-.1-.2-.2-.4-.2zm10.2.2c-.1-.1-.3-.1-.5-.1 0 .3 0 .4.1.5.2 0 .4-.1.4-.4zm-6.6 1c-.1-.4-.8-.6-1.2-.2 0 .7 1.1.9 1.2.2zm76.4-.4c-.1-.1-.3-.1-.5-.1v.4c.3.1.6.1.5-.3zm-80.7.4c-.1.1-.1.4 0 .5.2 0 .3 0 .4-.1 0-.3-.2-.4-.4-.4zm6 .2c.3 0 .2.2.5.1.3-.5-.5-.4-.5-.1zm4.1.5c.1-.4-.2-.5-.5-.4-.1.5.3.7.5.4zm2.6.2v-.3c-.1-.1-.3-.1-.5-.1-.3.4.2.7.5.4zm-21.2-.1c-.3 0-.5 0-.5.2.1.3.6.3.5-.2zm20.5.5c-.1.1-.1.3-.1.5.3 0 .4 0 .5-.1 0-.2-.1-.5-.4-.4zm-20.8.6h.4c.1-.4-.5-.4-.4 0zm12.9.3c0-.3 0-.5-.2-.5 0 .1-.2.1-.3.1-.1.4.1.5.5.4zm-2.8.5c.4 0 .6-.2.6-.5-.4-.3-.9 0-.6.5zm78.7-.3c-.2-.1-.3-.5-.5-.2-.1.2.4.4.5.2zm-67.8.7c0-.3-.1-.4-.4-.3-.2.3.1.3.4.3zm61.4.3c-.3 0-.5 0-.5.2.3 0 .5.3.5-.2zm-.8 1.7c.3 0 .3-.2.6-.1.1-.3-.2-.6-.3-.3.1 0 .1 0 .1.1s-.5-.1-.4.3zm-63.6-.2c-.1 0-.1 0-.1-.1h-.2c0 .1 0 .1-.1.1v.2c.1 0 .1 0 .1.1h.2c0-.1 0-.1.1-.1v-.2zm-13.3.2v.5c.3.1.6.1.6-.3.1-.3-.3-.2-.6-.2zm83.5.7c0-.3-.2-.4-.4-.3-.1.4.2.5.4.3zm-81.4.9c.1-.3.2-.7 0-1-1-.1-.8 1 0 1zm8-.7c-.4.6 0 1.3.4 1.6 1.8-.1 1.3-2.3-.4-1.6zm67.9.7h-.5l.1 1c.3 0 .2-.2.4 0-.1-.6-.5-.6 0-1zm-64.5.2l-.2.5c.4.3.4-.5.2-.5zm.4 1.1c-.1.1-.3.6.1.5.2 0 .2-.7-.1-.5zm67.8.3c0-.3-.2-.4-.4-.3-.1.4.2.5.4.3zm4.3.1c0-.3-.5-.1-.5 0-.2.3.7.3.5 0zm-74.4 1h.4c.2-.4-.5-.4-.4 0zm66.9.4c0-.1.2-.2.1-.4-.3 0-.4.2-.5.3.1 0 .2.1.4.1zm-78.7 0c-.5-.1-.8 0-.6.5.4.1.7 0 .6-.5zm-.8.6c0 .3-.4 0-.4 0-.1.4.2.5.5.4 0-.2 0-.4-.1-.4zm86.9.5v-.4c-.2 0-.3 0-.4.1 0 .3.1.3.4.3zm-74.5.5c0 .3.1.5.4.4.1-.3-.1-.3-.4-.4zm70.3.7c-.2.7.8.7.8.1-.4-.2-.4-.2-.8-.1zm-3.9 1.2c0 .4.5.2.6.3 0-.3-.4-.5-.6-.3zm1.3.7c0-.1 0-.2.1-.2 0-.3-.2-.4-.4-.4 0 .3-.1.7.3.6zm-1 .2c.1-1-1.2-.5-1.2.2.5-.4 1.1.6 1.2-.1-.2 0-.4 0-.3-.2.2-.1.2 0 .3.1zm-72.9.3c.2 0 .2.2.3.2 0-.1.2-.2.1-.4-.2-.1-.3 0-.4.2zm74.6.3c0 .7.5.5.1 1.1.6-.1.7-.6.9-1.1-.4-.2-.8-.2-1 0zm6.1 2.2h-.4c-.2.5.6.3.4 0zm-76 .6c.2 0 .4 0 .4-.2-.2 0-.2-.2-.3-.2 0 .1-.1.2-.1.4zm72 1.6c.4.2 1-.2 1.1-.6-.5 0-1 .2-1.1.6zm-69.7-.2c0 .3.2.4.4.4 0-.2-.1-.4-.4-.4zm68.3.7c.3.1.4-.1.5-.3-.2 0-.5 0-.5.3zm-72.8.1c-.1.4.2.5.5.5.1-.1.1-.4.1-.6-.2 0-.4 0-.6.1zm76.9.6c-.4-.1-.6.1-.6.3.3.3.5-.1.6-.3zm-70.6.3c-.1.4.2.4.4.4.1-.4-.1-.4-.4-.4zm71.7.2c-.3 0-.6 0-.5.3.2 0 .5 0 .5-.3zm-7.4.3c0 .2-.2.2-.2.3.3.4.7-.2.2-.3zm4.1.8c-.3 0-.7.1-.8.3.2.1.8 0 .8-.3zm-5.4.4c.2.2.7.1.5-.3-.3-.1-.4.1-.5.3zm2.2.1c.3.1.4-.1.5-.3-.2-.2-.3 0-.5 0v.3zm8 .8c-.3 0-.8-.1-1 .1.1.5.9 0 1-.1zm-8.7.1c.1.3-.1.4-.1.6.5 0 .9 0 .9-.4-.3-.2-.5-.3-.8-.2zm5.3.5c-.8-.1-1.5 0-2.1.1.1.2-.4.6-.6.8-.3-.6-1-.2-1.6-.4v.8l.6.3c0 .5-.7.3-.8.8.3.3 1.1.3 1.2-.3-.2 0-.4 0-.4-.1.1-.1 0-.4.2-.4.6.2.5-.2.8-.4-.1.4.1.5.2.6 1-.2 1.9-.4 2.5-1-.4-.3.1-.5 0-.8zm-6.4 1.2c.3-.3.6-.6.8-1.1-.7-.2-1.2.2-1.2 1 .1 0 .3 0 .4.1zm8.2-.5c0-.1 0-.2-.1-.2 0 .2 0 .3.1.4.3 0 .4-.2.4-.4-.1-.1-.1-.2-.3-.2 0 .2 0 .3-.1.4zm-73.2.1c.2 0 .1.3.4.2v-.3c-.1 0-.4-.1-.4.1zm71.9.3c.2.2.7.1.8-.2-.3 0-.8-.1-.8.2zm5.7-.1c-.2 0-.3 0-.4.1v.3c.3 0 .4-.2.2-.3.1 0 .2 0 .2-.1zm-6.1.2c-.4 0-.7.1-1 .2.2.4.1.5-.4.4 0 .3 0 .6.3.5.1-.6 1.1-.3 1.1-1.1zm-5.2.1c-.4-.1-.6.1-.6.3.2.3.6.1.6-.3zm.3.4c.3 0 .4-.1.3-.4-.3 0-.3.2-.3.4zm2.8.4c-.2 0-.2-.2-.3-.2-.1.4-.4.5-.8.3.2.5.9.2 1.1-.1zm-2.9.2c-.6-.4-1.1.3-1.5.4 0 .6.4.6.4 1.1 1.2.1 1-.6 1.1-1.5zm10.2.4c0-.1 0-.3-.1-.3 0 .3-.7-.1-.5.3 0 .3.5.1.6 0zm-7.1 0l-.4-.1c0 .1-.2.2-.1.4.3.1.6 0 .5-.3zm2.8.6c.1.1.3.1.5.1l.1-.4c-.2-.2-.6-.2-.6.3zm-.8-.2c0 .3-.2.3-.1.6.3.3 1 .2 1.1-.3-.2-.2-.5-.3-1-.3zm-3.3.5c-.6-.2-1.6-.5-1.6.4.6.3 1.5.1 1.6-.4zm4.4.2c.2.2 1 .2 1.1-.1-.2 0-.1-.2 0-.3-.5 0-1 0-1.1.4zm1.6-.2c.1 0 .2.2.4.1v-.3c-.2-.1-.4 0-.4.2zm-87.1.2l-.1.3c.2.2.4 0 .6 0 .1-.3-.2-.3-.5-.3zm81.7.9c-.4-.2-.8.1-.9.5.5.1.7-.2.9-.5zm-2.8.1c-.8-.2-.6.7-1.3.6-.1.3-.1.2 0 .5.9.1 1.3-.1 1.8-.5-.5-.1-.9-.1-.5-.6zm-62.3.6c.3.2.8.1.8-.3-.3-.3-.9-.2-.8.3zm63.6-.1c0-.3-.1-.4-.4-.3-.2.3.1.3.4.3zm.4 1.1c0-.8-1.5-.9-1.5 0 .6.3 1.2-.2 1.5 0zm3.6.2c.4 0 .4-.3.5-.5-.4-.5-.9 0-.5.5zm-3.1-.3c.2.3.5.2.5-.2-.2 0-.5-.1-.5.2zm-64.3.7c.1-.5-.3-.6-.5-.8.1.4-.3.3-.3.5.1.4.5.6.8.3zm56.3-.2c.4-.1.6.1.8.2-.1-.3.1-.4.1-.6-.5 0-.7-.2-1 0 .2 0 .1.3.1.4zm5.8-.4c-.3-.1-.3-.1-.6 0-.1.5.5.3.6 0zm8.5.1c-.2.1-.8-.2-.6.2.2 0 .6.1.6-.2zm-14.6.1c-.1.2-.5.6-.2.9 0-.1.2-.1.3-.1-.2-.4.1-.5-.1-.8zm7 .2c-.5-.2-1.4-.1-1.3.9.7.3 1.4-.1 1.3-.9zm8.4.7c.5.4 1.3 0 1.7-.3-.5-.4-1.6-.5-1.7.3zm-11.4-.1c.3.2 1 .2 1-.3-.4-.1-.9-.2-1 .3zm-3.9.3c.4.3 1 0 1-.4-.4-.3-.9-.2-1 .4zm11.6 0c.5.2 1.2.5 1.8.2 0-1-1.7-1.2-1.8-.2zm-3.5-.2c-.6 0-1.3-.4-1.4.3.3.6 1.3.2 1.4-.3zm.8.5c.1-.4-.1-.4-.4-.3-.1.3.1.3.4.3zm-3.6-.2c-.6.3-1.6.2-1.6 1.1.8.4 2-.2 1.6-1.1zm10.7 1.3c.1.2.9.2.9-.1-.3-.1-.8-.4-.9.1zm-14.2 0c-.2-.2-.7-.2-.9 0v.3c.4.2.9.2.9-.3zm.4.2c-.2.2-.5.3-.4.9.4 0 .2 0 .2.3.8-.4 1.8-.4 2.2-1.4-1-.2-.9.6-2 .2zm12.3 1.1c1 0 1.6-.3 2.1-.9-1-.3-2.5-.6-2.1.9zm-68-.2c0 .1-.1.1-.2 0-.1.1-.1.3-.1.5l.8.3c-.2-.3-.1-.7-.5-.8zm57.9 1.2c-.1.4.1.5.2.6.6 0 1-.2 1.2-.8-.5.3-.9 0-1.4.2zm-1.5.5c-.3-.4-1.7-.6-1.6.3.3.9 1.5.5 1.6-.3zm0 .4c.2.2.9.2.8-.3-.4 0-.8 0-.8.3zm-.1.5l.1.4c.3 0 .5-.1.4-.4h-.5zm-52.1.3c-.1.5.3.8.5.4 0-.3-.1-.4-.5-.4zm-1.4.5c-.2.2-.8 0-.9.3.1 1.6 2.1.6.9-.3zm58.5.5c.2-.1.8.2.8-.2-.4 0-.8-.1-.8.2zm-56.2.5c-.1.4.3.5.4.3.1-.2-.1-.3-.4-.3zm-21.6.2c0 .3.2.2.1.5.5.2.4-.6-.1-.5zm84.9.1c-.2 0-.4 0-.4.2.1 0 .2.2.4.1v-.3zm-6.5 1c0-.2.4-.1.3-.3-.7-.3-1.1-.5-1.8-.3.4.5-.1.3-.1.9.9.5 2.1.1 2.9 0-.4-.4-1-.1-1.3-.3zm-6.3.5l-.1.4c.2.2.5.1.8 0-.1-.4-.4-.4-.7-.4zm-58.7 1.4c-.1.6.7.5.6 0-.2-.2-.4-.1-.6 0zm6.2.9c.1.1.6.2.6-.1 0-.1-.6-.2-.6.1zm46.7-.1c-.2.6.7.6.5 0h-.5zm18.5.1c.4-.1.5.1.8.1 0-.3-.7-.3-.8-.1zm-26.5-.1c-.1.4.5.4.5.1-.1-.1-.2-.1-.5-.1zm-1.9 1v.3h.5c.1-.4-.3-.5-.5-.3zm9.3.1c0 .3.4.2.5.3 0-.4-.3-.4-.5-.3zm2.2.4c0-.3-.2-.3-.3-.4 0 .2-.2.2-.2.3.1.1.3.2.5.1zm-7 .8c-.1.4.2.4.4.3.1-.3-.1-.3-.4-.3zm10.1.1c.2.4.5 1 1 .6.1-.6-.8-.7-1-.6zm-3.4.9v.3c.2.3.9.6 1.3.3.1-.6-.7-.9-1.3-.6zm-5.1.5c0 .3.1.4.4.3.1-.4-.1-.4-.4-.3zm2.6 2.8h.4c.1-.4-.5-.4-.4 0zm-6.1.7c-.2.1-.2.6 0 .8.5.1.9-.1.8-.6-.4-.1-.5-.3-.8-.2zm-50.8-86.4c0-.6 1.3-.3.8-.6.1-.5-.1-.6.2-1-.5-.9-1.2-1.7-2.6-1.5-1.5 1-.7 3.3 1.6 3.1zm10.4 2.7c.3.1.7.2.8.5.4-.3.9-.4 1.4-.5-.1 1.1-.4 2.5.4 3.2 1.2.2 2.2.7 2.9.3-.1-.2.5-.1.6-.4-.1.4.5.1.5.3.1-.5 0-.5-.1-1l.5-.2.3-1.6c-.6-.2-.5-1.1-1.4-1-.3.5-.4.2-1.1.2-.1-.7-.5-1-1-1.3-.7.2-1.3.9-1.6 1.1.1-.2.3-.3.3-.6-.3-1.1-1.5-1.1-2.3-.4-.1-.5-.1.9-.4 1.1.6-.1.2.2.2.3zm36.5.4h-.5c-.1.7-1.1.5-1 1.4.8-.1 1.2-1 1.5-1.4zm.1-.1l-.1.1s.1 0 .1-.1zm2.7 1.6c.3.1.6-.6.2-.3.1 0 .1 0 .1.1-.2-.1-.5-.4-.8-.2 0 .4.2.4.5.4zm-38.6.9c-1.4 1.4.1 4 .1 5.6.3 0 .6.2.6.4.7 0 1.6-.1 1.7-.9-.3 2.2 1.7 1.9 1.7.8.1-.7-1.3-1.7-1.5-1l-.1-1.1c.2.1.5-.2.2-.2-.8-.7-.9-1.9-1.2-3.1-.3-.3-.9-.4-1.5-.5zm2.6 1.8c.2-.1.5-.6.3-.6-.2.2-.3-.6-.9-.4-.2.2-.1.6-.1.9l.7.1zm47.9 65.4c0 .2.5-.2.6.1.1.5-.6.4-.6.1-.2 0-.2.1-.3.1 0 .4.3.4.7.4-.2.2-.7.3-1 .1-.5.2-.3 1-.2 1.5-.4.6-.6 1-1.2 1.6-1.1 1.2-1.2 2.9-2.9 2.5-.5-2.6.4-4.5 2.6-4.9-.1-.4-.4-.6-.5-.9-.5-.1-.8.1-1.1 0-.3.5-1.5 1-1 1.4-.2.5-.8.6-1.4.8.1.3.4.3.4.5.2-.1.4-.2.8-.2.1.6-.5.5-.6.9-.1.3.2.2.2.4-.5.5-1.2 1.4 0 1.6.2 1.2-1.8.3-1.8 1.3-1-.1-1.8.8-2.2-.3-.1 0-.2.1-.2.3-.5-.1-.5-.3-1-.3-.2-.6.7-.5 1-.3 0-.4-.9-.4-.5-.9-.4-.6-1 .2-1.4-.5-.3 0-.5.4-.8.1-.3.2 0 .5-.2.6-.2.1-.2-.2-.2-.3-1.5.7-3.8 1.2-5 2.3-1.3 0-3.4.1-4.4.6h-.3c-.3.3-.5.7-1 .5.4 1.1-.9 1-.6 2.4-.9.8-1.9 1.5-1.9 3.1h-.6l.2 1c0 .2-.2.3-.5.2-.2 1.7 0 3.6-.1 5.5 0 .7-.2 1.4-.9 1.6v.5c-1.6 1.1-3.4.1-3.4-1.9.5-.6.1-2.1-.5-2.4-.1-.7 0-1.8 0-2.5.7-.9.6-2.8.6-4 0-.2-.2-.3-.5-.2l-.1-.9c-.7-.3-1.1-1-1.8-1.4-.3 0-.5 0-.4-.3-.3-.1-.6-.2-1-.2.2-.5-.3-.3-.5-.5-.9.5-1 1.3-1 2.1h.2c.1.3 0 .4-.2.5 0 .6 0 1.3-.2 1.8.2 3.1 1.6 6.1-.4 8.8-.5-.3-1.1.2-1.5.4-.5-.2-1-.5-1.5-.6-.7-2.9-1.4-6-1.1-8.8-.2-1-1.3-1.6-1.4-2.5-.2-1.3-1.1-2.3-1.6-3.5-.3 0-.5 0-.6-.1-.2-.6-.6-1.1-.8-1.8-.1-.1-.2-.2-.2-.4.1-.1.3-.1.5-.1v.1c.1-.1.2-.1.4-.1-.1-.3-.4.2-.6-.1.2-1 .1-2 0-2.9-.2-.1-.4-.2-.4-.6-.1 0-.1.1-.1.2-.4-.2-.3-.4 0-.5-.2-.4-.6-.3-1.2-.5 0-.1.2-.1.3-.1-.8-.1-1.3-1-1.4-1.4l-1.1-.8c.1-.4.2-.4.1-.9.3-.1.2.2.4.2 0-.3-.6-.3-.2-.6-.3 0-.7 0-.6.3-.2 0-.2-.3-.5-.2 0-.1.3-.1.4-.1-.1-.1-.3-.2-.1-.2-.4 0-.5-.8-1.2-.9.1-.1.1-.4 0-.5-.1.1-.1.2-.3.2l.3-.5c.2 0 .2.3.5.2 0-.3-.4-.4.1-.4-.5-.3-.8.1-1 .1-.2 0-.2-.3-.5-.2.2-.7-.3-.6-.7-.9.2-.8-.5-.6-.5-1.1h.3c-.2-.1-.3-.3-.5-.3.2-.5-.2-.9-.4-.9-.3-.4-.4-1.4-.6-1.5-.3 0 0-.3.2-.2-.1-.2-.2-.3-.3-.3.1-.1.2-.2.3-.2 0-.3-.5-.1-.4-.4l.2.1c-.2-.6-.5-.7-.7-1.4.2.5.4-.2-.1-.1.1-.8-.1-1.5-.6-1.9 0-.5.1-1.3-.4-1.5.4-.7-.8-1.1-.1-1.8-.5-.1-.4-1.5-.6-2.2.2 0 .2-.1.3-.1 0-.3-.2-.2-.1-.5-.1 0-.1.2-.1.3-.9-4.4.4-8.5 1.6-13.4.1.1.2 0 .3 0 .4-1.8 1.4-3 1.9-4.7.6-.1.6-.9 1.1-1.5.5-.7 1.2-.7 1.2-1.6.5.1.6.1.9-.3-.2-.2-.3-.3-.3-.6v-.2.2c-.2.3-.8.2-.8.6 0-.3-.4-.7 0-.9-.2-.3-.7-.5-.3-1 .4 0 .5.3.8.4 0 .2-.1.2-.1.3 0 .2.4.1.4.2.3-.1.4-.2.6-.3.1.2.3.5.4.6 2-1.1 3.1-2.6 4.9-4 0-.3.1-.6-.2-.7.2-.1.4 0 .8.1.4-.2.7-.4.9-.8-.3.1-.5-.3-.5-.9.3 0 .2.2.4 0 0-.2-.5 0-.6-.1 0 .5.1.8.2 1.2-.1.2-.6.3-.9.1.2-.7.4-1 .1-1.8.2-.1.3-.3.5-.3-.1-.1-.1-.2-.1-.3-.5.1-.2.7-1 .6 0-.4-.2-.5 0-.9.2-.2.2 0 .4.1.2-.2 0-.3-.2-.4.3-.1.5-.4.6-.6.2 0 .1.6-.2.4.1.1.1.2.1.3.2-.2.4-.3.8-.1-.1-.2.2-.7.5-1 .3 0-.1.6.2.5 0 .2-.2.2-.4.2.1.2.4.1.3.5-.5-.1-.5.2-.6.4.6-.3 1.1 0 1.3.5.1.5-.5.3-.5.6.1 0 1-.3 1 .3.3-.2.2-1.1.6-.8 0-.3-.2-.4-.1-.8-.3 0-.1.4-.4.3-.1-.4.3-.7-.2-.8 0-.2.3-.6-.1-.5.1-.4.4-.4.2-1 .6 0 .3-.8 1.1-.6.1.7.1 1.1.4 1.6-.5-.4-.4.4-.8.1 0 .3 0 .5-.1.6 0 .3.6-.1.4.3.3 0 0-.4-.1-.3.3-.3.8-.3.9-.8.3.1-.1.2 0 .4h.2c.2 0 0-.1 0-.3l.3.2c.4-.4.9-1.3 1.6-1 .2-.2.3-.4.6-.4-.6-.2-.9.2-1.6 0l-.4.8c-.4-.2-.7-.5-.3-1h.5c0-.2-.1-.3-.2-.3l.5-.1c.2 0 .1.4.2.4.2 0 .1-.4.2-.4.2.2.5.2.8.3.2-.3.4-.6.8-.6-.5-.3-.2-1.3-.9-1.4v-.6c.3-.3.7-.4 1.3-.3.2.3-.2.7.1 1.1.2-.2.4.1.8 0l-.3.9c.2.2.6-.1.9.1l.2-.5c.3 0 .3.2.6.1.3-.5.8-.9 1.1-1.5 0-.3-.3.3-.3-.1-.2.1-.2.4-.3.5-1.7-.1.1-1.4.6-1l.8-.9c-.1 0-.4-.1-.4-.5h-.6c-.1-.6.4-.6.8-.8.1-.3-.2-.3-.1-.5.6.3.7-1.1 1.4-.6.1 0 .1-.3.1-.4.3.1.6.1.5-.3l-.5.2c0-.1 0-.2-.1-.2.6-.2.3-1 .9-1.3.1-.4-.4-.3-.3-.6.2-.2.3-.4.6-.4-.2.4.3.2.2.5-.6-.1 0 .3-.4.2.1.3.2-.1.4 0 0 .6.3 1.3-.2 1.5 1.2.1 1 1.5.8 2.5.2.2.4.4.6.5.2-.1-.1-.6-.2-.8.5-.5 0-1.3.2-1.5-.1-.2-.4-.2-.5-.3-.1-.4.1-.6.3-.8.3 0 .5.6.6.1.2.1.1.5.2.7-.1.2-.3.2-.3.4.7 0 .1-1 .5-.8-.1-.1-.1-.2 0-.2-.3-.2-.4-.6-.9-.6-.1-1.3 1.1-1.1 1.6-.4.3.2.2-.5.3-.1.3-.1-.3-.2-.1-.4.2-.4 1-.2.9-.5.1-.1.5-.1.8.1.1-.1.4-.6.1-.6.1-.2.4-.2.5-.1l-.2-.4c.1-.3.6-.5.8-.3.1.4-.2.6 0 .8 1-.4 1.9-.1 2.5-.9.1-.4-.4-.1-.2-.4.5-.1.6-.5.9-.9 1-.1 1.2-.5 2.1-.4 2.9.2-.7 3.8 0 5.2-.2.1-.1.3-.3.1.4.3.1.8.6.8 0 .2 0 .5-.3.4.3.4.4-.4.8-.3.3.3-.4.4-.3.8-.3-.1-.3.1-.4-.1-.3.1.3.2.1.4-.1.4 0-.3-.2-.2-.3.1 0 .5 0 .6-.4.1-.4-.1-.5.3-.1 0-.1-.1-.1-.2-.4.4-.1.7-.9.8 0 .2.4.1.3.4-.3.1-.3.2-.6.1l.2-.5h-.2c-.2 0 0 .1 0 .3-.3.1-.2-.2-.4-.2-.2.2-.4.2-.2.5-.1 0-.2-.1-.2-.2-.1 0-.4.4 0 .3-.5.1-.9.2-1.5.4.5.2-.5.6-.8.3-.1-.4.2-.5.5-.5-.2-.4-.5-.2-.3-.9-.3-.1-.4 0-.3.3-.3.1-.4-.1-.6-.1 0-.2.3-.1.2-.4.2.2.1 0 .4 0-.1-.2-.2-.4-.4-.4s-.1.3-.4.2c-.1-.3.2-.3 0-.5-.2 0-.3.1-.3.2.2.6.6 1.6.1 2.3.1.1.5.1.8-.1.7.4 2 .5 3.2.4-.5.3.9.5 1 .1.4.1 0 .2.2.4 1 0 1.3.6 2.2.4 1.2 1.1 4.1.8 4.8 1.8h.5c0 .1-.1.2-.3.2 1.5.1 2.3.7 3.6 1.2-.4.8 1.1.5 1.5.9-.2.3-.7-.4-.8.2-.5-.6-1.6-.7-2.2-.8-.1.3-.3.4-.8.3.3.3.7.2 1.1-.1.5.2-.6.4 0 .4-.1.3-.7 0-.8.2.2.2.4.2.8.2-.5.5-.9-.3-1.5-.1.1-.2.2-.4.3-.5-.3.1-.7.1-.9-.2.1.7-.5-.1-1 .2l1 .5c.1 0 .1-.2.1-.3.3.3.3.7 1.2.9-.3.4-.9 0-1.1.3l1 .2c0 .1-.3.1-.3 0-.2 0 0 .1 0 .3-.4 0-.6-.3-1.1-.2.3.3 1.2.6 1.3.2.4.1.6.3.9.4-1 .4-1.8-.4-2.7-.3.2.2 1 .2.6.5h.4c-.2.2 0 .1 0 .4.3-.1.5-.1.5.3-.4 0-.5-.3-.9-.1.5.5 2 1.4 2.5.3.5 0 .7 0 1 .1-.1-.1-.1-.2-.1-.3.2 0 .2.1.2.2.1-.4.3-.2.5-.3l-.3-1.3c.7.3.9-.1 1.4.2.2 0 .1-.3.4-.2-.1-.3-.5-.3-.4-.7-.3.2-.4-.2-.4.2 0-.3.2-.7-.3-1 .6 0 .6.3 1.2.1.2.3-.2.3.3.2 0 .1 0 .2-.1.2.1.1.2.2.3.2 0-.4.5 0 .4.3.4-.5.8.4 1.3.5 0 .2-.1.2-.1.3.6-.2.9 1.1 1.7 1 0 .9.7.3 1.1 1-.2.4-.2-.3-.4-.2-.2 0 0 .1 0 .3-.6-.5-.4-.1-1-.2.5-.6-.5-.7-.8-1.2-.4.1.1.5-.4.4.2-.2-.1-.4.1-.5-.1-.3-.5-.2-.8-.3.2-.2-.3-.5-.5-.6-.1.1.1.5-.3.2.1.5 1 .8 1.2.8.2.9 1.2 1.2 1.8 1.6-.5.2-1.3-1.1-2.3-1.1.7.1-.4-1-1.1-.6v.4c.4.1.2-.4.7-.2-.3.5-.6.3-.5.8-.5 0-.6-.3-.9-.4.2.5.9.7.8 1.2.3-.2.6-.1.9.1-.1 1 .8.6 1.3 1.1.1-.1.2-.2.2-.4 0-.4-.3.1-.4-.2.1-.5.6.1.9-.2-.1.3.5.1.8.3-.1.3-.3-.1-.5 0 .3.2.2.2 0 .4 0 .2.3.2.4.3-.2.1-.3.3-.4.4.3.2.1 1 .8 1 .1.4-.2.2-.3.1.1.2.2.3.3.3.1-.1.1-.2.3-.2-.1.4.5.2.2.5-.1-.1-.1-.2-.3-.2-.1.4.4.3.3.6.1-.1.2-.1.4-.1 0 .6 1.3 1 .8 1.5 0 .1.3.1.4.1 0-.1 0-.2-.1-.2.4-.4.1.6.4.4-.5.1.4.5-.2.5 0 .5.4.5.8.6 0 .4.3.5-.2.5.3.3.8.3.8.9.3-.1.4-.2.4.2.6-.2.9.1 1.3.4.5-.2 0-.9 0-1.2-.2 0 0 .5-.1.6-.3-.4-.4-1.1-.5-1.6.4.1.2.7.4.9.1-.3.2-1.2-.3-1.1.1-.2.3-.2.5-.2-.1.6.4.8.1 1.4.2.3.3.2.5.1.3.9.6 2.3.1 2.9 0 .2.2.2.4.2-.3.3-.5.3-.4.6-.3 0-.2-.3-.1-.4-.3-.1-.4.2-.6.2 0 .3.3.3.3 0 .3.1-.2.2-.2.4-.3-.5-.7.3-.9-.3-.3 0-.2.4-.2.6.1 0 .1-.2.1-.3-.5 1.1-.6 1.1-.1 1.1.1.3-.4.3-.1.5.3-.1.2-.6.4-.8.2.2.3.4.7.2-.1.2.1.6-.1.5l.3.3.1-.6c.1.1.2.1.4.1-.2.4-.1 1-.6 1.1.3.3.5.5.4.9.3 0 .3-.4.8-.3.1.4-.4.1-.2.4-.4 0-.3-.1-.6 0 .1.3.1.2-.1.4-.1.4.4.3.8.3-.2.2.1.2 0 .5h-.3c0 .1.2.1.3.1-.3.9.1.4-.5 1.1.4.1.8-.1 1.3.1-.3.1-.6.2-1 .3 0 .3.6.1.8.3 0 .5-.3-.1-.5 0s-.2.5-.3.6c-.4.2-.4.1-.5 0l-.2.3c.2.4.4 0 .6.2-.2.2-.4.2-.6.2.1.3.1.2-.1.4.2.1.4.1.8.3 0-.3-.2-.2-.1-.5.2 0 .3-.1.3-.2.1.1.1.2.2.5-.2.1-.4.2-.5.3.2.2.4 0 .8-.1v.8c-.2 0-.3.1-.3.2.1.4.5.5.5.9-.1.2-.4-.3-.6 0-.3.1.3.2.1.4l-.8-.1c.1.3.4.4.8.4-.2.1-.3.4-.6.3 0-.3.2-.2 0-.4-.3 0-.3.2-.3.4-.4-.1-.5-.1-1 0l.1-.4c-.6.4-1.4-.2-1.5.4.1.5.8-.1.8.5.2 0 .1-.3.4-.2 0 .4 0 .8-.2 1 .1.2.8-.5.4-.8.3 0 .5.1 1-.1-.1.3-.1.3 0 .6-.2 0-.3-.1-.4-.1-.1.5.3.4.3.8.1-.1.2-.1.4-.1-.1-.4.1-.5.1-.8.2 0 .1.6 0 .6.4.1.1-.5.3-.5.2 0 .2.2.2.4.4.1.3-.4.6-.3.1.2.4.3.3.6-.2.1-.3.1-.4 0 0 .3.1.4.2.6.4 0 .5-.2 1-.2-.2.2-.5.3-.5.5 0-.4-.2-.2-.6-.3-.1.3.2.2.4.2.1.3-.2.2-.2.4.1.3.2-.1.4 0 0 .5-.7.2-.9.4 0 .3.5.1.3.5.5-.3.8-.9 1.5-1.1-.1.9-1.3.7-1.5 1.4-.3-.5-.3.2-.5.3-.1-.1-.2-.2-.2-.3-.2.2-.5.3-.9.3.2.2.7.2 1 .4-.1.3-.8.3-.8-.1-.2.5-1 0-1.2.4.2.4.6-.1.7.3.2-.3.8-.1.9-.2.3.1-.1.3 0 .5-.4-.3-.3.4-.6.1-.1.3.1.4.1.6-.1 0-.2 0-.2.1-.2-.2-.3-.5-.4-.8-.1.1-.5.3-.4-.1-.2.2.1.3-.2.4.2 0 .4-.1.9.1-.1.4-.2.2-.4.3.1.3.7 0 .8.2-.2.2-.1.6-.1 1-.3-.2-.5.1-.8-.2.2-.3.1-.3.2-.5-.5 0-.4.5-.6.6.4.5 1.2-.1 1.4.8-.3.2-.9 0-.9-.4-.6 0-.1.5-.4.7h.1c.3 0-.1-.5.3-.3l-.2 1c-.2-.4-.3-.3-.4-.9-.2.1-.1.5-.5.3.2-.6-.5-.3-.4-.9.4-.1.3.3.4.4.3 0 .6.1.6-.2-.1-.2-.6 0-.6-.3-.6.2-1.4-.2-1.6.2 0 .2.3-.2.2.3.3-.1.3 0 .5-.3.2 0 .3.1.4.1-.2.4-.1.7-.3.9.1.2 1 0 .5.4.3 0 .4-.1.3-.4.4.2.6 0 .8.5-.5-.2 0 .6-.3.5 0 .3.2-.1.4 0-.4.5-.3.7-.6 1.4.5-.1.8-.1 1.7 0 0 .5-.4.7-.8.8.4.4.3.5.3 1 .2 0 .2-.3.3-.4.4.2-.3.3-.1.6 0 .3.5.1.6.3-.2.8-.6 1.2-1.3 1.3.3.1.1.4.2.4 0 .3-.5.1-.5 0-.1-.3.2-.2.2-.4-.3 0-.5-.2-.9-.1.1.2.5 0 .4.4-.3 0-.4.2-.8.1-.1-.3.2-.2.2-.4-1.4.3-2.7.8-3 2.4.1.4.3.1.6.1-.1.6-.7.6-1.2.8.4.8 1.1-.2 1.6-.2-.2.1-.3.3-.5.3.2.2.5.3.8.4-.1.5-.4.7-.9.8-.4-.1-.6-.4-.9-.5-.7.4-1 1.2-1.5 1.8.3.2.4-.6 1-.4v-.5c.6-.1 1.3.4 1.9-.1.9 1.2.2 2.5-.4 2.9zm2.5-12.7c0 .3.3.3.4.4l.1-.3-.5-.1zm-.6 3.5l.1.8c-.3 0-.6.1-.6.6.4-.2.7-.4 1.3-.5-.4-.6.1-.7.2-1.3-.4 0-.3-.5-.6-.5-.1.4.2.3.2.6-.4.1 0 .4-.2.5 0-.1-.2-.2-.4-.2zm-.5-1.8c.2.4-.2.8.2 1 .1-.2.3-.4.2-.8-.3.1-.2-.2-.4-.2zm-.2-1.5h.4c.1-.4-.5-.4-.4 0zm2.9-8c.2.3 1.2-.1 1.3.3-.1-.3.2-.3.2-.5-.6 0-1.5-.2-1.5.2zm-1.2 4c0-.3.2.1.4 0v-.3c-.2-.1-.7.2-.4.3zm2.1-7.2c.1-.2.2-.3.2-.4-.2 0-.4 0-.4-.2.2 0 .5.1.4-.2-.2-.1-.4.3-.4 0 0-.1 0-.1-.1-.1-.1.4-.1.8.3.9zm-1.3.6c-.1.4.4.1.7.2v-.3c-.5 0-.4.3-.7.1zm-.3-1.4c.2 0 .2.1.3.2-.1-.3.1-.4.1-.6l-.3-.3.1.6s-.2 0-.2.1zm0 1.5c0-.3-.2-.3-.4-.3-.1.3.2.3.4.3zm-.1-12c.4.1.7-.5.3-.5 0 .2-.1.3-.3.2v.3zm-2 11.6c.1.1.1.3.2.3.3.1.7-.5.5 0h.4c.1-.7-.7-.1-1.1-.3zm-3.1-13.5l1.4-.3c.3.1.4.5.5.8l-.2.1c0-.6-.6 0-.8-.4.1.4-.4.8.1 1 0-.2 0-.4.1-.4.3-.1.3.2.4.3.4-.2.2.1.5.1-.1-.5.2-.5.2-.8-.5-.1-.8-.6-.4-1-.7 0-1.1.1-1.7-.1.4.3 0 .3-.1.7zm-8.4-13.5c.2.6.7.1 1 .1-.2-.2-.7-.1-1-.1zm-43.9 37.7c0-.3-.3-.8-.4-.5.2 0 .1.4.4.5zm4.4 9.3c-.3-.1-.5-.1-.6-.4l.1-.2c-.6-.1-.1.3-.3.4.4-.1.5.8.8.2zm1.8.4c-.2-.4.2-.6-.2-.8 0 .2 0 .4-.2.3.2-.3-.1-.7-.3-.4.1.1.3.6.1.6 0-.6-.9-.7-.9 0 .6-.2.9.5 1.2.3-.3-.3.2.3.3 0zm34.6-47.3c0 .3.2.4.4.3 0-.3-.2-.3-.4-.3zm1.2-.5c.3.1.2-.2.4-.2 1.1.5-.4-.6-.4.2zm-1.6.2c1-.2 1.6 1.1 2.2.6-.7 0 0-.1 0-.4-.5 0-.6-.2-1 0 0-.2 0-.4-.2-.4-.2.2-.7-.2-1 .2zm-1.7-1.1c.3.6 1.1-.1 1.4.2-.3-.5-1-.3-1.4-.2zm-1.6.6c.1.2.4.3.6.3 0-.2-.5-.5-.6-.3zm0 1.9c.6.2 1.4.7 1.9.5-.4-.1.3 0 .2-.2-.2 0-.8-.1-1.1 0 0-.5-.4-.2-.2-.5-.2.1-.4-.3-.5 0 .6.3-.3 0-.3.2zm-2.2-2.1c.3.1 1.4.2.9.5.3 0 .3-.2.7-.1 0-.2 0-.4-.1-.4-.1.3-1.5-.3-1.5 0zm-.4 2c.3.2.8.2 1.2.3-.1-.3-1.1-.4-1.2-.3zm-8.1-7.1l.4 1.5c.3-.1.7 0 .9-.2-.7-.3 0-1-.4-1.3 0 .3-.1.4-.2.5-.2-.2-.3-.5-.7-.5zm-3.3 2c.8-.2.3-2 .5-2.4-.3-.1-.4-.3-.6-.3-.6.7.7 1.8.1 2.7zm-3 2.6c.2.2.3 0 .5-.1 0-.2 0-.3.1-.4-.4-.1-.4.3-.6.5zm-2.3.6c.7-.1.1.4.5.4-.1-.3.5-.3.2-.7-.1.4-.6-.2-.7.3zm-.2-1.4c.4-.1.1.4.4.2-.1-.3.3-.2.3-.4-.4 0 .3-.4-.2-.3.1.4-.5.2-.5.5zm-9.7 53.1c-.3-.1-.4-.1-.5.1.1 0 .1.1 0 .2.3-.1.5.2.5 0-.1 0 .1-.1 0-.3zm.4.9c0-.2 0-.4-.1-.6 0-.1-.1-.1-.2-.1 0 .4.1.6.3.7zm33.3-49.3c-.5-.2-.7-.2-1.3-.1.3 0 1 .4 1.3.1zm-.1 1.3c.1 0 .2 0 .2.1-.1 0-.1 0-.1.1.3 0 .5-.1.5-.3-.3-.1-.3 0-.5-.3l-.2.1c.1 0 .1.1.1.3zm.7.9c-.1 0-.1-.1-.1-.2-.2.1-.6-.1-.5.1.1 0 .5.4.6.1zm3.9.4c-.4-.1-.9.3-.5.5 0-.3.3-.3.5-.5zm1.4-.6l-1.1-.5v.2c-.1 0-.1 0-.1.1l.4.2c0 .1-.1.2-.2.2 0-.2-.7-.8-.8-.2l.4-.1c.1.2.1.4.2.5.2-.2.3 0 .5 0l-.1-.4.2-.1c.2.1.5.4.6.1zm5.5 4.5c.2-.3 0 .6.4.2 0 .4.1.7.4.9-.4-.6-.2-1.3-.8-1.6.2.2-.3.4 0 .5zm-1.6-2c.2.2.6.8 1 .5-.6 0-.4-.3-.2-.5h-.8zm-35-15.5c-.4.2-.2.9.3.9 0-.3.1-.5.2-.6.6.4.9-.2 1.5 0-.1-.7.3-1 .6-1 .1-.4-.4-.1-.2-.4l.9-.3-.1-.4c-.6-.2-.4.5-.8.5.1-.3-.2-.4 0-.6-.8-.1-.3-1-.8-1.3l-.2.3c-.1-.3-.4-.4-.8-.4-.3.2-.4.6-.6.9-.1-.2-.3-.3-.5-.3-.2.2-.4.8-.2 1 .3-.6-.6 1.6.7 1.7zm19.7 1c-.1.3-.1.6-.3.1-.1.5-.5.9 0 .9-.2.1-.7.4-.3.6 0-.2.4-.1.4-.2.1-.4-.1-.5-.1-.9.2.1.8-.1 1.1.1l-.8-.6zm.5 1.4c.1.8 1.6.2 1.8-.5 0 .2 0 .4.2.3-.1-.4-.3-.5.2-1-.8.1-2.3.5-2.2 1.2zm-2.1 1c-.4-.2-.7.2-.6-.3-.6.2-1.1.5-1.3.5.5-.1.2.5.4.5 0-.1.1-.1.2-.1-.1-.7 1.2.2 1.3-.6zm-23.1-.1c-.5.2-.5.2-.9-.1-.3.1-.3.5-.6.5v.8c-.2-.2-.7-.1-.5.3.4.1.8-.1.5.5.7-.3 2 .1 1.9-1.2-.4.2-1-.5-.4-.8zm27.2 1.5c-.2 0-.3 0-.4.1.1.4.5.3.2.8.7.4 1.6-.4 1.4-.9-.4.2-1 .2-1.3.4l.1-.4zm-37.6 2.4c.1.4.5.2.2.6.3 0 .3-.2.3-.4l-.5-.2zm.3 3.1c-.4 0-.3-.5-.6-.5.4 1-.7.4-1.1.9.4 0 0 .4.2.4.1-.3.8 0 1-.2l-.1-.4c.2 0 .2.2.3.2-.2-.4.4-.1.3-.4zm-7.3 1.6c.2 0 .1.3.1.4.3.1.5-.1.4-.4-.3.2-.5-.2-.5 0zm14.6.1h-.5c0-.1 0-.2-.1-.2 0 .4-.3.4-.2.9.1 0 .1.1.1.2.2 0 .5-.1.4.2l.3-1.1zm-1.1 1.6c.3 0 .5-.2.5-.4-.3.1-.5-.4-.5-.1.3 0-.1.2 0 .5zm42.8.3c-.3-.1-.1-.2-.1-.4-.7.7-.9-.6-1.8-.4.1.4.6 1.1 1 .5.4.2-.3.5 0 .5.2-.3.4.2.8.1-.2-.2 0-.2.1-.3zm-43.5-.2c.4-.2.4.1.5 0-.2-.2 0-.6-.4-.5 0 .2-.2.2-.1.5zm-3.7.7c0-.1 0-.2.1-.2.2.2.7 0 .8-.2-.1 0-.1-.2-.1-.3-.3.1-.4-.1-.6-.1.1.4-.5.6-.2.8zm49.1 0c.5 0 .5.6.8.8-.3-.2.2.1.1.3-.1 0-.5-.3-.5-.1.4.3.6.7 1 1.1.1-.2.4-.1.3-.5-.4-.1.1.3-.3.3-.5-.6-.2-.6-.3-1.3.3.1.3.4.8.3-.3-.5-.6-1-1-1.3l-.1.4c-.1-.2-.2-.3-.4-.4l-.4.4zm-56.1 1.3c-.2-.2-.1-.7-.5-.5-.1.4.6.6.5.5zm59.1 2.5c0-.1 0-.3.1-.3.2.1 0 .5.3.5 0-.2-.3-.7-.1-.8.2.1.1.6.4.6.1-.5-.2-.8-.4-1 0 .2-.3.1-.4.1 0-.3-.2-.3-.2-.5.2.1.3.3.6.2-.3-.3-.6-1.3-1-1.2.2.2.3.4.3.6l-.4-.3c.2-.1-.1-.6-.1-.8-.2 0-.3 0-.4.1.5 1.4.7 2 1.3 2.8zm-70.5 1.6c.4-.1.5.1.6-.1-.3 0-.6-.4-.6.1zm9.3 4.4c.4.1.2.7.9.5.1-.5-.9-.5-.9-.5zm67.1 14.1c-.3-.1.2-.3 0-.7-.4-.1-.1 1.1 0 .7zm.2 3.2c.3.1.3-.2.5-.1.1-.4-.6-.4-.6-.3.2 0 .1.2.1.4zm-1.9 1.5c.1-.2.5-.7.2-.9l-.2.2c.3.1-.3.7 0 .7zm-55.7 15c.6-.6-.5-1-.4-1.3-.1.3-.6.2-.8.3.1.6.5.9 1.2 1zm35.6-16.8c-1.5 1.6-3.2 2.6-5.9 2.6-1.7 0-3.1-.5-4.3-1.4v8.2h-.5v-7.1h-3.3v-.6c1.2 0 1.4-.6 1.1-1.5l-.9-2.3h-5.5l-.9 2.4c-.3.8 0 1.4 1 1.4v.6h-4.4v-.6c.6 0 1.5-.3 1.9-1.2.8-1.5 3.5-7.9 5.4-12.2h1.5c1 2.5 2.9 6.9 4 9.7v-16.7h.5v7.7c1.2-.9 2.7-1.4 4.4-1.4 2.7 0 4.3.9 5.7 2.3l-1.6 1.9c-1.2-1.1-2.4-1.8-4.1-1.8-2.1 0-3.7 1.3-4.4 3.1v4.1c.7 1.8 2.3 3.1 4.4 3.1 1.8 0 2.9-.7 4.2-1.9l1.7 1.6zm-14.3-3l-2.2-5.8-2.4 5.8h4.6z"/></svg>