<svg xmlns="http://www.w3.org/2000/svg" width="200" height="28" viewBox="0 0 200 28"><path fill="#fff" d="M69 16.5v3.8c.9.4 2 .6 3.1.6 2.7 0 4.3-1 5.8-2.5l-2-2c-1.1 1-2.1 1.7-3.7 1.7-1.4 0-2.5-.6-3.2-1.6zM72.2 9.2c1.4 0 2.5.6 3.6 1.6l2-2.3c-1.3-1.3-2.9-2.2-5.6-2.2-1.2.1-2.2.3-3.2.7v3.8c.7-1 1.9-1.6 3.2-1.6zM79.3 13.7c0 4.1 3.1 7.3 7.5 7.3s7.5-3.3 7.5-7.3-3.1-7.3-7.5-7.3c-4.3 0-7.5 3.3-7.5 7.3zm11.8 0c0 2.5-1.7 4.4-4.2 4.4s-4.3-2-4.3-4.4c0-2.4 1.7-4.4 4.2-4.4 2.5-.1 4.3 2 4.3 4.4zM100.2 6.6h-3.1v14.1h10.1v-2.8h-7zM119.7 20.7v-2.8h-7v-11.3h-3.1v14.1zM132.8 20.7v-2.7h-7.7v-3h6.7v-2.8h-6.7v-2.8h7.6v-2.8h-10.6v14.1zM134.9 13.7c0 4.1 3.1 7.3 7.2 7.3 2.7 0 4.3-1 5.8-2.5l-2-2c-1.1 1-2.1 1.7-3.7 1.7-2.4 0-4.1-2-4.1-4.4 0-2.4 1.7-4.4 4.1-4.4 1.4 0 2.5.6 3.6 1.6l2-2.3c-1.3-1.3-2.9-2.2-5.6-2.2-4.2-.1-7.3 3.2-7.3 7.2zM149.4 6.6v2.9h4.3v11.2h3.2v-11.2h4.2v-2.9zM163.7 6.6h3.1v14.1h-3.1zM184.7 13.7c0-4.1-3.1-7.3-7.5-7.3s-7.5 3.3-7.5 7.3 3.1 7.3 7.5 7.3c4.3 0 7.5-3.3 7.5-7.3zm-11.8 0c0-2.5 1.7-4.4 4.2-4.4s4.3 2 4.3 4.4c0 2.4-1.7 4.4-4.2 4.4s-4.3-2-4.3-4.4zM187.5 6.6v14.1h3v-8.9l6.9 8.9h2.6v-14.1h-3.1v8.7l-6.6-8.7zM68.9 0h.4v28h-.4zM63.6 8.7c-.3-.9-.1-1.5 1-1.5v-.6h-5.6v.6c.9 0 1.5.8 1.9 1.8.7 1.9 3.2 8.6 4.4 11.9h1.3c.8-2 1.7-4.4 2.5-6.6v-3.2h-4.6l-.9-2.4zm5.3 3.3l-2.2 5.9-2-5.9h4.2zM58 20.7v-.6c-.9-.1-1.6-.2-1.7-.5-.1-.4-.1-.7-.1-1.2v-9.4c0-.5 0-.8.1-1.2.1-.4.8-.5 1.7-.5v-.7h-6.4v.6c.9.1 1.6.2 1.7.5.1.4.1.7.1 1.2v3.8h-1.5c-1.6-2.8-2.8-6.2-4-6.2h-2.9v.4c.6.4 1.6 1.7 2.5 3.1l2.1 3.2c-1.8.6-3 2.1-3 3.9 0 2.5 2 3.6 4.3 3.6h7.1zm-6-.8c-1.4 0-2.4-.7-2.4-2.9 0-1.9.6-3.4 2.4-3.4h1.4v6.3h-1.4zM44.4 20.7l.5-3.1h-.5c-.7 1.3-1.2 2.3-2.9 2.3h-1.7v-10.9c0-.5 0-.8.1-1.2.1-.4.8-.5 1.7-.5v-.7h-6.4v.6c.9.1 1.6.2 1.7.5.1.4.1.7.1 1.3v11h-1.7c-1.7 0-2.2-1.1-2.9-2.3h-.5l.5 3.1h12zM29.4 19.5c-.1-.4-.1-.7-.1-1.2v-9.3c0-.5 0-.8.1-1.2.1-.4.8-.5 1.7-.5v-.7h-6.4v.6c.9.1 1.6.2 1.7.5.1.4.1.7.1 1.2v9.4c0 .5 0 .8-.1 1.2-.1.4-.8.5-1.7.5v.6h6.4v-.6c-.9 0-1.6-.1-1.7-.5zM13.9 10.1c0 1.5.6 2.7 2.7 4.2 2.2 1.7 3.6 2.4 3.6 3.8 0 1.5-1 2.1-2 2.1-1.6 0-2.3-1.4-2.7-2.6h-.5v2.8c0 .1.1.2.2.3 1 .3 2 .3 3.3.3 2.8 0 4.7-1.4 4.7-3.4 0-1.8-1.3-2.9-2.8-3.9-2.8-1.8-3.4-2.7-3.4-4.1 0-1.5 1.2-2.5 2.5-2.5 1.7 0 2.9 1.4 3.2 3.3h.5v-3.1c0-.2-.1-.2-.1-.3-1-.4-2.2-.6-3.8-.6-3-.1-5.4 1.3-5.4 3.7zM.5 17.6h-.5l.5 3.1h12.1l.5-3.1h-.5c-.7 1.3-1.2 2.3-2.9 2.3h-1.7v-10.9c0-.5 0-.8.1-1.2.1-.4.8-.5 1.7-.5v-.7h-6.4v.6c.9.1 1.6.2 1.7.5.1.4.1.7.1 1.3v11h-1.8c-1.7-.1-2.1-1.1-2.9-2.4z"/></svg>